<svg xmlns="http://www.w3.org/2000/svg" width="1100" height="908" viewBox="0 0 1100 908" font-family="Malgun Gothic, Apple SD Gothic Neo, sans-serif" font-size="11">
<rect width="100%" height="100%" fill="#ffffff"/>
<text x="64" y="22" font-size="15" font-weight="bold" fill="#222">[MW0601] 신동 2026-09-23 — 변형별 거래 흐름</text>
<rect x="64" y="50" width="886" height="150" fill="#fafafa" stroke="#e3e3e3"/>
<line x1="98.5" y1="50" x2="98.5" y2="200" stroke="#eee"/>
<line x1="236.6" y1="50" x2="236.6" y2="200" stroke="#eee"/>
<line x1="374.7" y1="50" x2="374.7" y2="200" stroke="#eee"/>
<line x1="512.8" y1="50" x2="512.8" y2="200" stroke="#eee"/>
<line x1="650.8" y1="50" x2="650.8" y2="200" stroke="#eee"/>
<line x1="788.9" y1="50" x2="788.9" y2="200" stroke="#eee"/>
<line x1="927.0" y1="50" x2="927.0" y2="200" stroke="#eee"/>
<line x1="64" y1="192.0" x2="950" y2="192.0" stroke="#c9b37a" stroke-dasharray="3,3" stroke-width="0.8"/>
<text x="34" y="195.0" fill="#9c8446" font-size="9">1110</text>
<line x1="64" y1="117.6" x2="950" y2="117.6" stroke="#c9b37a" stroke-dasharray="3,3" stroke-width="0.8"/>
<text x="34" y="120.6" fill="#9c8446" font-size="9">1124</text>
<line x1="64" y1="85.7" x2="950" y2="85.7" stroke="#c9b37a" stroke-dasharray="3,3" stroke-width="0.8"/>
<text x="34" y="88.7" fill="#9c8446" font-size="9">1130</text>
<polyline points="64.0,68.1 66.3,71.3 68.6,73.3 70.9,70.8 73.2,69.5 75.5,63.5 77.8,60.7 80.1,62.8 82.4,62.4 84.7,63.6 87.0,65.8 89.3,69.1 91.6,66.5 93.9,66.5 96.2,69.5 98.5,80.6 100.8,83.0 103.1,80.0 105.4,73.9 107.7,83.4 110.0,87.9 112.3,85.9 114.6,96.5 116.9,101.3 119.2,91.9 121.5,95.8 123.8,93.1 126.1,86.7 128.4,99.0 130.7,94.1 133.0,96.5 135.3,101.4 137.6,102.9 139.9,101.8 142.2,98.3 144.5,102.5 146.8,110.2 149.1,104.6 151.4,107.4 153.8,102.1 156.1,102.6 158.4,100.2 160.7,96.1 163.0,101.0 165.3,101.6 167.6,97.2 169.9,94.0 172.2,103.7 174.5,106.8 176.8,110.0 179.1,112.2 181.4,110.4 183.7,118.2 186.0,108.5 188.3,108.1 190.6,106.1 192.9,101.0 195.2,102.1 197.5,105.4 199.8,107.5 202.1,109.1 204.4,107.5 206.7,112.7 209.0,116.3 211.3,122.8 213.6,120.3 215.9,122.0 218.2,121.9 220.5,126.5 222.8,128.6 225.1,131.1 227.4,133.8 229.7,134.0 232.0,139.2 234.3,131.2 236.6,132.9 238.9,135.7 241.2,137.5 243.5,134.9 245.8,129.4 248.1,123.7 250.4,121.6 252.7,125.0 255.0,127.6 257.3,123.2 259.6,124.1 261.9,126.3 264.2,122.3 266.5,118.7 268.8,118.9 271.1,117.7 273.4,113.0 275.7,115.1 278.0,116.9 280.3,112.2 282.6,111.4 284.9,111.6 287.2,117.5 289.5,118.5 291.8,115.1 294.1,119.5 296.4,124.7 298.7,121.5 301.0,126.1 303.3,124.3 305.6,130.7 307.9,131.1 310.2,134.7 312.5,141.4 314.8,143.6 317.1,144.0 319.4,149.4 321.7,151.8 324.0,147.0 326.3,145.9 328.6,146.4 331.0,152.4 333.3,156.7 335.6,152.3 337.9,160.6 340.2,160.6 342.5,160.6 344.8,164.9 347.1,162.4 349.4,166.6 351.7,167.5 354.0,172.2 356.3,173.6 358.6,177.6 360.9,175.8 363.2,179.6 365.5,177.9 367.8,169.9 370.1,169.6 372.4,173.5 374.7,167.9 377.0,174.0 379.3,173.3 381.6,167.5 383.9,165.6 386.2,167.2 388.5,174.3 390.8,175.3 393.1,174.6 395.4,182.7 397.7,183.0 400.0,178.4 402.3,176.9 404.6,178.8 406.9,178.1 409.2,180.1 411.5,185.3 413.8,180.4 416.1,184.1 418.4,182.9 420.7,179.0 423.0,174.7 425.3,176.3 427.6,178.9 429.9,179.1 432.2,180.3 434.5,176.2 436.8,182.1 439.1,179.7 441.4,179.7 443.7,183.0 446.0,184.0 448.3,188.8 450.6,189.5 452.9,184.9 455.2,186.4 457.5,184.4 459.8,186.8 462.1,183.4 464.4,186.4 466.7,183.1 469.0,180.6 471.3,182.1 473.6,183.7 475.9,185.8 478.2,183.1 480.5,183.5 482.8,183.4 485.1,181.5 487.4,178.6 489.7,177.8 492.0,179.4 494.3,179.4 496.6,177.3 498.9,173.0 501.2,175.0 503.5,172.3 505.8,174.0 508.2,173.4 510.5,174.7 512.8,175.9 515.1,172.5 517.4,176.2 519.7,177.1 522.0,175.4 524.3,173.3 526.6,171.9 528.9,172.3 531.2,173.5 533.5,173.5 535.8,176.4 538.1,175.7 540.4,178.4 542.7,177.7 545.0,180.5 547.3,183.6 549.6,183.5 551.9,182.4 554.2,182.0 556.5,181.3 558.8,172.9 561.1,171.4 563.4,171.4 565.7,171.9 568.0,173.2 570.3,167.1 572.6,167.8 574.9,169.9 577.2,172.5 579.5,176.0 581.8,176.0 584.1,170.7 586.4,172.7 588.7,174.3 591.0,171.2 593.3,171.6 595.6,171.6 597.9,171.6 600.2,163.6 602.5,166.7 604.8,162.0 607.1,161.5 609.4,162.7 611.7,164.3 614.0,165.2 616.3,164.8 618.6,165.2 620.9,165.4 623.2,167.6 625.5,169.7 627.8,168.7 630.1,173.6 632.4,170.7 634.7,166.5 637.0,169.4 639.3,167.4 641.6,169.6 643.9,172.0 646.2,175.4 648.5,177.0 650.8,179.6 653.1,174.4 655.4,174.6 657.7,173.9 660.0,171.7 662.3,163.7 664.6,165.2 666.9,164.4 669.2,155.3 671.5,151.7 673.8,156.3 676.1,156.0 678.4,157.6 680.7,159.0 683.0,157.5 685.4,155.4 687.7,161.1 690.0,158.6 692.3,160.2 694.6,160.0 696.9,158.9 699.2,155.6 701.5,159.0 703.8,163.3 706.1,165.4 708.4,164.4 710.7,164.1 713.0,162.8 715.3,163.9 717.6,163.1 719.9,161.9 722.2,156.5 724.5,155.1 726.8,154.5 729.1,154.7 731.4,153.5 733.7,153.5 736.0,156.7 738.3,156.7 740.6,156.7 742.9,156.7 745.2,156.7 747.5,163.1 749.8,161.0 752.1,162.1 754.4,160.5 756.7,157.7 759.0,153.7 761.3,152.8 763.6,153.3 765.9,153.5 768.2,153.5 770.5,153.6 772.8,155.3 775.1,159.0 777.4,157.3 779.7,155.8 782.0,161.8 784.3,160.1 786.6,158.1 788.9,159.3 791.2,164.2 793.5,162.0 795.8,161.2 798.1,155.8 800.4,156.9 802.7,160.9 805.0,155.9 807.3,156.4 809.6,156.6 811.9,154.7 814.2,159.0 816.5,158.6 818.8,156.9 821.1,157.4 823.4,156.6 825.7,152.6 828.0,153.2 830.3,153.2 832.6,155.2 834.9,159.7 837.2,158.1 839.5,160.5 841.8,159.2 844.1,162.8 846.4,158.4 848.7,160.7 851.0,161.2 853.3,162.6 855.6,160.1 857.9,154.8 860.2,154.8 862.6,153.8 864.9,158.1 867.2,156.5 869.5,157.3 871.8,160.2 874.1,156.1 876.4,156.4 878.7,158.5 881.0,158.6 883.3,157.2 885.6,159.5 887.9,163.4 890.2,157.7 892.5,154.9 894.8,153.1 897.1,149.4 899.4,149.1 901.7,153.3 904.0,148.0 906.3,146.2 908.6,143.9 910.9,143.2 913.2,143.3 915.5,145.1 917.8,145.4 920.1,151.1 922.4,153.8 924.7,157.2 927.0,156.5 929.3,156.6 931.6,152.1 933.9,154.4 936.2,155.3 938.5,153.9 940.8,151.8 943.1,149.7 945.4,151.3" fill="none" stroke="#8a8f98" stroke-width="1.1"/>
<text x="64" y="46" font-weight="bold" fill="#333">MAIN(본안)</text>
<text x="960" y="72" font-size="14" font-weight="bold" fill="#1a7f37">+177.7만</text>
<text x="960" y="90" fill="#666">2거래 2승</text>
<line x1="100.8" y1="83.0" x2="211.3" y2="121.6" stroke="#1a7f37" stroke-width="1.6" opacity="0.75"/>
<text x="211.3" y="125.6" fill="#1a7f37" font-size="12" text-anchor="middle">×</text>
<line x1="100.8" y1="83.0" x2="450.6" y2="189.3" stroke="#1a7f37" stroke-width="1.6" opacity="0.75"/>
<text x="450.6" y="193.3" fill="#1a7f37" font-size="12" text-anchor="middle">×</text>
<polygon points="100.8,90.0 95.8,81.0 105.8,81.0" fill="#cf222e"/>
<text x="100.8" y="100.0" font-size="10" fill="#333" text-anchor="middle">1</text>
<text x="960" y="108" fill="#1a7f37">1 R2▼ +133.9만</text>
<line x1="487.4" y1="178.6" x2="938.5" y2="153.9" stroke="#1a7f37" stroke-width="1.6" opacity="0.75"/>
<text x="938.5" y="157.9" fill="#1a7f37" font-size="12" text-anchor="middle">×</text>
<line x1="487.4" y1="178.6" x2="938.5" y2="153.9" stroke="#1a7f37" stroke-width="1.6" opacity="0.75"/>
<text x="938.5" y="157.9" fill="#1a7f37" font-size="12" text-anchor="middle">×</text>
<polygon points="487.4,171.6 482.4,180.6 492.4,180.6" fill="#1a7f37"/>
<text x="487.4" y="168.6" font-size="10" fill="#333" text-anchor="middle">2</text>
<text x="960" y="122" fill="#1a7f37">2 R3▲ +43.8만</text>
<rect x="64" y="226" width="886" height="150" fill="#fafafa" stroke="#e3e3e3"/>
<line x1="98.5" y1="226" x2="98.5" y2="376" stroke="#eee"/>
<line x1="236.6" y1="226" x2="236.6" y2="376" stroke="#eee"/>
<line x1="374.7" y1="226" x2="374.7" y2="376" stroke="#eee"/>
<line x1="512.8" y1="226" x2="512.8" y2="376" stroke="#eee"/>
<line x1="650.8" y1="226" x2="650.8" y2="376" stroke="#eee"/>
<line x1="788.9" y1="226" x2="788.9" y2="376" stroke="#eee"/>
<line x1="927.0" y1="226" x2="927.0" y2="376" stroke="#eee"/>
<line x1="64" y1="368.0" x2="950" y2="368.0" stroke="#c9b37a" stroke-dasharray="3,3" stroke-width="0.8"/>
<line x1="64" y1="293.6" x2="950" y2="293.6" stroke="#c9b37a" stroke-dasharray="3,3" stroke-width="0.8"/>
<line x1="64" y1="261.7" x2="950" y2="261.7" stroke="#c9b37a" stroke-dasharray="3,3" stroke-width="0.8"/>
<polyline points="64.0,244.1 66.3,247.3 68.6,249.3 70.9,246.8 73.2,245.5 75.5,239.5 77.8,236.7 80.1,238.8 82.4,238.4 84.7,239.6 87.0,241.8 89.3,245.1 91.6,242.5 93.9,242.5 96.2,245.5 98.5,256.6 100.8,259.0 103.1,256.0 105.4,249.9 107.7,259.4 110.0,263.9 112.3,261.9 114.6,272.5 116.9,277.3 119.2,267.9 121.5,271.8 123.8,269.1 126.1,262.7 128.4,275.0 130.7,270.1 133.0,272.5 135.3,277.4 137.6,278.9 139.9,277.8 142.2,274.3 144.5,278.5 146.8,286.2 149.1,280.6 151.4,283.4 153.8,278.1 156.1,278.6 158.4,276.2 160.7,272.1 163.0,277.0 165.3,277.6 167.6,273.2 169.9,270.0 172.2,279.7 174.5,282.8 176.8,286.0 179.1,288.2 181.4,286.4 183.7,294.2 186.0,284.5 188.3,284.1 190.6,282.1 192.9,277.0 195.2,278.1 197.5,281.4 199.8,283.5 202.1,285.1 204.4,283.5 206.7,288.7 209.0,292.3 211.3,298.8 213.6,296.3 215.9,298.0 218.2,297.9 220.5,302.5 222.8,304.6 225.1,307.1 227.4,309.8 229.7,310.0 232.0,315.2 234.3,307.2 236.6,308.9 238.9,311.7 241.2,313.5 243.5,310.9 245.8,305.4 248.1,299.7 250.4,297.6 252.7,301.0 255.0,303.6 257.3,299.2 259.6,300.1 261.9,302.3 264.2,298.3 266.5,294.7 268.8,294.9 271.1,293.7 273.4,289.0 275.7,291.1 278.0,292.9 280.3,288.2 282.6,287.4 284.9,287.6 287.2,293.5 289.5,294.5 291.8,291.1 294.1,295.5 296.4,300.7 298.7,297.5 301.0,302.1 303.3,300.3 305.6,306.7 307.9,307.1 310.2,310.7 312.5,317.4 314.8,319.6 317.1,320.0 319.4,325.4 321.7,327.8 324.0,323.0 326.3,321.9 328.6,322.4 331.0,328.4 333.3,332.7 335.6,328.3 337.9,336.6 340.2,336.6 342.5,336.6 344.8,340.9 347.1,338.4 349.4,342.6 351.7,343.5 354.0,348.2 356.3,349.6 358.6,353.6 360.9,351.8 363.2,355.6 365.5,353.9 367.8,345.9 370.1,345.6 372.4,349.5 374.7,343.9 377.0,350.0 379.3,349.3 381.6,343.5 383.9,341.6 386.2,343.2 388.5,350.3 390.8,351.3 393.1,350.6 395.4,358.7 397.7,359.0 400.0,354.4 402.3,352.9 404.6,354.8 406.9,354.1 409.2,356.1 411.5,361.3 413.8,356.4 416.1,360.1 418.4,358.9 420.7,355.0 423.0,350.7 425.3,352.3 427.6,354.9 429.9,355.1 432.2,356.3 434.5,352.2 436.8,358.1 439.1,355.7 441.4,355.7 443.7,359.0 446.0,360.0 448.3,364.8 450.6,365.5 452.9,360.9 455.2,362.4 457.5,360.4 459.8,362.8 462.1,359.4 464.4,362.4 466.7,359.1 469.0,356.6 471.3,358.1 473.6,359.7 475.9,361.8 478.2,359.1 480.5,359.5 482.8,359.4 485.1,357.5 487.4,354.6 489.7,353.8 492.0,355.4 494.3,355.4 496.6,353.3 498.9,349.0 501.2,351.0 503.5,348.3 505.8,350.0 508.2,349.4 510.5,350.7 512.8,351.9 515.1,348.5 517.4,352.2 519.7,353.1 522.0,351.4 524.3,349.3 526.6,347.9 528.9,348.3 531.2,349.5 533.5,349.5 535.8,352.4 538.1,351.7 540.4,354.4 542.7,353.7 545.0,356.5 547.3,359.6 549.6,359.5 551.9,358.4 554.2,358.0 556.5,357.3 558.8,348.9 561.1,347.4 563.4,347.4 565.7,347.9 568.0,349.2 570.3,343.1 572.6,343.8 574.9,345.9 577.2,348.5 579.5,352.0 581.8,352.0 584.1,346.7 586.4,348.7 588.7,350.3 591.0,347.2 593.3,347.6 595.6,347.6 597.9,347.6 600.2,339.6 602.5,342.7 604.8,338.0 607.1,337.5 609.4,338.7 611.7,340.3 614.0,341.2 616.3,340.8 618.6,341.2 620.9,341.4 623.2,343.6 625.5,345.7 627.8,344.7 630.1,349.6 632.4,346.7 634.7,342.5 637.0,345.4 639.3,343.4 641.6,345.6 643.9,348.0 646.2,351.4 648.5,353.0 650.8,355.6 653.1,350.4 655.4,350.6 657.7,349.9 660.0,347.7 662.3,339.7 664.6,341.2 666.9,340.4 669.2,331.3 671.5,327.7 673.8,332.3 676.1,332.0 678.4,333.6 680.7,335.0 683.0,333.5 685.4,331.4 687.7,337.1 690.0,334.6 692.3,336.2 694.6,336.0 696.9,334.9 699.2,331.6 701.5,335.0 703.8,339.3 706.1,341.4 708.4,340.4 710.7,340.1 713.0,338.8 715.3,339.9 717.6,339.1 719.9,337.9 722.2,332.5 724.5,331.1 726.8,330.5 729.1,330.7 731.4,329.5 733.7,329.5 736.0,332.7 738.3,332.7 740.6,332.7 742.9,332.7 745.2,332.7 747.5,339.1 749.8,337.0 752.1,338.1 754.4,336.5 756.7,333.7 759.0,329.7 761.3,328.8 763.6,329.3 765.9,329.5 768.2,329.5 770.5,329.6 772.8,331.3 775.1,335.0 777.4,333.3 779.7,331.8 782.0,337.8 784.3,336.1 786.6,334.1 788.9,335.3 791.2,340.2 793.5,338.0 795.8,337.2 798.1,331.8 800.4,332.9 802.7,336.9 805.0,331.9 807.3,332.4 809.6,332.6 811.9,330.7 814.2,335.0 816.5,334.6 818.8,332.9 821.1,333.4 823.4,332.6 825.7,328.6 828.0,329.2 830.3,329.2 832.6,331.2 834.9,335.7 837.2,334.1 839.5,336.5 841.8,335.2 844.1,338.8 846.4,334.4 848.7,336.7 851.0,337.2 853.3,338.6 855.6,336.1 857.9,330.8 860.2,330.8 862.6,329.8 864.9,334.1 867.2,332.5 869.5,333.3 871.8,336.2 874.1,332.1 876.4,332.4 878.7,334.5 881.0,334.6 883.3,333.2 885.6,335.5 887.9,339.4 890.2,333.7 892.5,330.9 894.8,329.1 897.1,325.4 899.4,325.1 901.7,329.3 904.0,324.0 906.3,322.2 908.6,319.9 910.9,319.2 913.2,319.3 915.5,321.1 917.8,321.4 920.1,327.1 922.4,329.8 924.7,333.2 927.0,332.5 929.3,332.6 931.6,328.1 933.9,330.4 936.2,331.3 938.5,329.9 940.8,327.8 943.1,325.7 945.4,327.3" fill="none" stroke="#8a8f98" stroke-width="1.1"/>
<text x="64" y="222" font-weight="bold" fill="#333">E2F2(흐름순응)</text>
<text x="960" y="248" font-size="14" font-weight="bold" fill="#1a7f37">+133.9만</text>
<text x="960" y="266" fill="#666">1거래 1승</text>
<line x1="100.8" y1="259.0" x2="211.3" y2="297.6" stroke="#1a7f37" stroke-width="1.6" opacity="0.75"/>
<text x="211.3" y="301.6" fill="#1a7f37" font-size="12" text-anchor="middle">×</text>
<line x1="100.8" y1="259.0" x2="450.6" y2="365.3" stroke="#1a7f37" stroke-width="1.6" opacity="0.75"/>
<text x="450.6" y="369.3" fill="#1a7f37" font-size="12" text-anchor="middle">×</text>
<polygon points="100.8,266.0 95.8,257.0 105.8,257.0" fill="#cf222e"/>
<text x="100.8" y="276.0" font-size="10" fill="#333" text-anchor="middle">1</text>
<text x="960" y="284" fill="#1a7f37">1 R2▼ +133.9만</text>
<rect x="64" y="402" width="886" height="150" fill="#fafafa" stroke="#e3e3e3"/>
<line x1="98.5" y1="402" x2="98.5" y2="552" stroke="#eee"/>
<line x1="236.6" y1="402" x2="236.6" y2="552" stroke="#eee"/>
<line x1="374.7" y1="402" x2="374.7" y2="552" stroke="#eee"/>
<line x1="512.8" y1="402" x2="512.8" y2="552" stroke="#eee"/>
<line x1="650.8" y1="402" x2="650.8" y2="552" stroke="#eee"/>
<line x1="788.9" y1="402" x2="788.9" y2="552" stroke="#eee"/>
<line x1="927.0" y1="402" x2="927.0" y2="552" stroke="#eee"/>
<line x1="64" y1="544.0" x2="950" y2="544.0" stroke="#c9b37a" stroke-dasharray="3,3" stroke-width="0.8"/>
<line x1="64" y1="469.6" x2="950" y2="469.6" stroke="#c9b37a" stroke-dasharray="3,3" stroke-width="0.8"/>
<line x1="64" y1="437.7" x2="950" y2="437.7" stroke="#c9b37a" stroke-dasharray="3,3" stroke-width="0.8"/>
<polyline points="64.0,420.1 66.3,423.3 68.6,425.3 70.9,422.8 73.2,421.5 75.5,415.5 77.8,412.7 80.1,414.8 82.4,414.4 84.7,415.6 87.0,417.8 89.3,421.1 91.6,418.5 93.9,418.5 96.2,421.5 98.5,432.6 100.8,435.0 103.1,432.0 105.4,425.9 107.7,435.4 110.0,439.9 112.3,437.9 114.6,448.5 116.9,453.3 119.2,443.9 121.5,447.8 123.8,445.1 126.1,438.7 128.4,451.0 130.7,446.1 133.0,448.5 135.3,453.4 137.6,454.9 139.9,453.8 142.2,450.3 144.5,454.5 146.8,462.2 149.1,456.6 151.4,459.4 153.8,454.1 156.1,454.6 158.4,452.2 160.7,448.1 163.0,453.0 165.3,453.6 167.6,449.2 169.9,446.0 172.2,455.7 174.5,458.8 176.8,462.0 179.1,464.2 181.4,462.4 183.7,470.2 186.0,460.5 188.3,460.1 190.6,458.1 192.9,453.0 195.2,454.1 197.5,457.4 199.8,459.5 202.1,461.1 204.4,459.5 206.7,464.7 209.0,468.3 211.3,474.8 213.6,472.3 215.9,474.0 218.2,473.9 220.5,478.5 222.8,480.6 225.1,483.1 227.4,485.8 229.7,486.0 232.0,491.2 234.3,483.2 236.6,484.9 238.9,487.7 241.2,489.5 243.5,486.9 245.8,481.4 248.1,475.7 250.4,473.6 252.7,477.0 255.0,479.6 257.3,475.2 259.6,476.1 261.9,478.3 264.2,474.3 266.5,470.7 268.8,470.9 271.1,469.7 273.4,465.0 275.7,467.1 278.0,468.9 280.3,464.2 282.6,463.4 284.9,463.6 287.2,469.5 289.5,470.5 291.8,467.1 294.1,471.5 296.4,476.7 298.7,473.5 301.0,478.1 303.3,476.3 305.6,482.7 307.9,483.1 310.2,486.7 312.5,493.4 314.8,495.6 317.1,496.0 319.4,501.4 321.7,503.8 324.0,499.0 326.3,497.9 328.6,498.4 331.0,504.4 333.3,508.7 335.6,504.3 337.9,512.6 340.2,512.6 342.5,512.6 344.8,516.9 347.1,514.4 349.4,518.6 351.7,519.5 354.0,524.2 356.3,525.6 358.6,529.6 360.9,527.8 363.2,531.6 365.5,529.9 367.8,521.9 370.1,521.6 372.4,525.5 374.7,519.9 377.0,526.0 379.3,525.3 381.6,519.5 383.9,517.6 386.2,519.2 388.5,526.3 390.8,527.3 393.1,526.6 395.4,534.7 397.7,535.0 400.0,530.4 402.3,528.9 404.6,530.8 406.9,530.1 409.2,532.1 411.5,537.3 413.8,532.4 416.1,536.1 418.4,534.9 420.7,531.0 423.0,526.7 425.3,528.3 427.6,530.9 429.9,531.1 432.2,532.3 434.5,528.2 436.8,534.1 439.1,531.7 441.4,531.7 443.7,535.0 446.0,536.0 448.3,540.8 450.6,541.5 452.9,536.9 455.2,538.4 457.5,536.4 459.8,538.8 462.1,535.4 464.4,538.4 466.7,535.1 469.0,532.6 471.3,534.1 473.6,535.7 475.9,537.8 478.2,535.1 480.5,535.5 482.8,535.4 485.1,533.5 487.4,530.6 489.7,529.8 492.0,531.4 494.3,531.4 496.6,529.3 498.9,525.0 501.2,527.0 503.5,524.3 505.8,526.0 508.2,525.4 510.5,526.7 512.8,527.9 515.1,524.5 517.4,528.2 519.7,529.1 522.0,527.4 524.3,525.3 526.6,523.9 528.9,524.3 531.2,525.5 533.5,525.5 535.8,528.4 538.1,527.7 540.4,530.4 542.7,529.7 545.0,532.5 547.3,535.6 549.6,535.5 551.9,534.4 554.2,534.0 556.5,533.3 558.8,524.9 561.1,523.4 563.4,523.4 565.7,523.9 568.0,525.2 570.3,519.1 572.6,519.8 574.9,521.9 577.2,524.5 579.5,528.0 581.8,528.0 584.1,522.7 586.4,524.7 588.7,526.3 591.0,523.2 593.3,523.6 595.6,523.6 597.9,523.6 600.2,515.6 602.5,518.7 604.8,514.0 607.1,513.5 609.4,514.7 611.7,516.3 614.0,517.2 616.3,516.8 618.6,517.2 620.9,517.4 623.2,519.6 625.5,521.7 627.8,520.7 630.1,525.6 632.4,522.7 634.7,518.5 637.0,521.4 639.3,519.4 641.6,521.6 643.9,524.0 646.2,527.4 648.5,529.0 650.8,531.6 653.1,526.4 655.4,526.6 657.7,525.9 660.0,523.7 662.3,515.7 664.6,517.2 666.9,516.4 669.2,507.3 671.5,503.7 673.8,508.3 676.1,508.0 678.4,509.6 680.7,511.0 683.0,509.5 685.4,507.4 687.7,513.1 690.0,510.6 692.3,512.2 694.6,512.0 696.9,510.9 699.2,507.6 701.5,511.0 703.8,515.3 706.1,517.4 708.4,516.4 710.7,516.1 713.0,514.8 715.3,515.9 717.6,515.1 719.9,513.9 722.2,508.5 724.5,507.1 726.8,506.5 729.1,506.7 731.4,505.5 733.7,505.5 736.0,508.7 738.3,508.7 740.6,508.7 742.9,508.7 745.2,508.7 747.5,515.1 749.8,513.0 752.1,514.1 754.4,512.5 756.7,509.7 759.0,505.7 761.3,504.8 763.6,505.3 765.9,505.5 768.2,505.5 770.5,505.6 772.8,507.3 775.1,511.0 777.4,509.3 779.7,507.8 782.0,513.8 784.3,512.1 786.6,510.1 788.9,511.3 791.2,516.2 793.5,514.0 795.8,513.2 798.1,507.8 800.4,508.9 802.7,512.9 805.0,507.9 807.3,508.4 809.6,508.6 811.9,506.7 814.2,511.0 816.5,510.6 818.8,508.9 821.1,509.4 823.4,508.6 825.7,504.6 828.0,505.2 830.3,505.2 832.6,507.2 834.9,511.7 837.2,510.1 839.5,512.5 841.8,511.2 844.1,514.8 846.4,510.4 848.7,512.7 851.0,513.2 853.3,514.6 855.6,512.1 857.9,506.8 860.2,506.8 862.6,505.8 864.9,510.1 867.2,508.5 869.5,509.3 871.8,512.2 874.1,508.1 876.4,508.4 878.7,510.5 881.0,510.6 883.3,509.2 885.6,511.5 887.9,515.4 890.2,509.7 892.5,506.9 894.8,505.1 897.1,501.4 899.4,501.1 901.7,505.3 904.0,500.0 906.3,498.2 908.6,495.9 910.9,495.2 913.2,495.3 915.5,497.1 917.8,497.4 920.1,503.1 922.4,505.8 924.7,509.2 927.0,508.5 929.3,508.6 931.6,504.1 933.9,506.4 936.2,507.3 938.5,505.9 940.8,503.8 943.1,501.7 945.4,503.3" fill="none" stroke="#8a8f98" stroke-width="1.1"/>
<text x="64" y="398" font-weight="bold" fill="#333">X4NF(가까운목표·flip금지)</text>
<text x="960" y="424" font-size="14" font-weight="bold" fill="#1a7f37">+177.7만</text>
<text x="960" y="442" fill="#666">2거래 2승</text>
<line x1="100.8" y1="435.0" x2="211.3" y2="473.6" stroke="#1a7f37" stroke-width="1.6" opacity="0.75"/>
<text x="211.3" y="477.6" fill="#1a7f37" font-size="12" text-anchor="middle">×</text>
<line x1="100.8" y1="435.0" x2="450.6" y2="541.3" stroke="#1a7f37" stroke-width="1.6" opacity="0.75"/>
<text x="450.6" y="545.3" fill="#1a7f37" font-size="12" text-anchor="middle">×</text>
<polygon points="100.8,442.0 95.8,433.0 105.8,433.0" fill="#cf222e"/>
<text x="100.8" y="452.0" font-size="10" fill="#333" text-anchor="middle">1</text>
<text x="960" y="460" fill="#1a7f37">1 R2▼ +133.9만</text>
<line x1="487.4" y1="530.6" x2="938.5" y2="505.9" stroke="#1a7f37" stroke-width="1.6" opacity="0.75"/>
<text x="938.5" y="509.9" fill="#1a7f37" font-size="12" text-anchor="middle">×</text>
<line x1="487.4" y1="530.6" x2="938.5" y2="505.9" stroke="#1a7f37" stroke-width="1.6" opacity="0.75"/>
<text x="938.5" y="509.9" fill="#1a7f37" font-size="12" text-anchor="middle">×</text>
<polygon points="487.4,523.6 482.4,532.6 492.4,532.6" fill="#1a7f37"/>
<text x="487.4" y="520.6" font-size="10" fill="#333" text-anchor="middle">2</text>
<text x="960" y="474" fill="#1a7f37">2 R3▲ +43.8만</text>
<rect x="64" y="578" width="886" height="150" fill="#fafafa" stroke="#e3e3e3"/>
<line x1="98.5" y1="578" x2="98.5" y2="728" stroke="#eee"/>
<line x1="236.6" y1="578" x2="236.6" y2="728" stroke="#eee"/>
<line x1="374.7" y1="578" x2="374.7" y2="728" stroke="#eee"/>
<line x1="512.8" y1="578" x2="512.8" y2="728" stroke="#eee"/>
<line x1="650.8" y1="578" x2="650.8" y2="728" stroke="#eee"/>
<line x1="788.9" y1="578" x2="788.9" y2="728" stroke="#eee"/>
<line x1="927.0" y1="578" x2="927.0" y2="728" stroke="#eee"/>
<line x1="64" y1="720.0" x2="950" y2="720.0" stroke="#c9b37a" stroke-dasharray="3,3" stroke-width="0.8"/>
<line x1="64" y1="645.6" x2="950" y2="645.6" stroke="#c9b37a" stroke-dasharray="3,3" stroke-width="0.8"/>
<line x1="64" y1="613.7" x2="950" y2="613.7" stroke="#c9b37a" stroke-dasharray="3,3" stroke-width="0.8"/>
<polyline points="64.0,596.1 66.3,599.3 68.6,601.3 70.9,598.8 73.2,597.5 75.5,591.5 77.8,588.7 80.1,590.8 82.4,590.4 84.7,591.6 87.0,593.8 89.3,597.1 91.6,594.5 93.9,594.5 96.2,597.5 98.5,608.6 100.8,611.0 103.1,608.0 105.4,601.9 107.7,611.4 110.0,615.9 112.3,613.9 114.6,624.5 116.9,629.3 119.2,619.9 121.5,623.8 123.8,621.1 126.1,614.7 128.4,627.0 130.7,622.1 133.0,624.5 135.3,629.4 137.6,630.9 139.9,629.8 142.2,626.3 144.5,630.5 146.8,638.2 149.1,632.6 151.4,635.4 153.8,630.1 156.1,630.6 158.4,628.2 160.7,624.1 163.0,629.0 165.3,629.6 167.6,625.2 169.9,622.0 172.2,631.7 174.5,634.8 176.8,638.0 179.1,640.2 181.4,638.4 183.7,646.2 186.0,636.5 188.3,636.1 190.6,634.1 192.9,629.0 195.2,630.1 197.5,633.4 199.8,635.5 202.1,637.1 204.4,635.5 206.7,640.7 209.0,644.3 211.3,650.8 213.6,648.3 215.9,650.0 218.2,649.9 220.5,654.5 222.8,656.6 225.1,659.1 227.4,661.8 229.7,662.0 232.0,667.2 234.3,659.2 236.6,660.9 238.9,663.7 241.2,665.5 243.5,662.9 245.8,657.4 248.1,651.7 250.4,649.6 252.7,653.0 255.0,655.6 257.3,651.2 259.6,652.1 261.9,654.3 264.2,650.3 266.5,646.7 268.8,646.9 271.1,645.7 273.4,641.0 275.7,643.1 278.0,644.9 280.3,640.2 282.6,639.4 284.9,639.6 287.2,645.5 289.5,646.5 291.8,643.1 294.1,647.5 296.4,652.7 298.7,649.5 301.0,654.1 303.3,652.3 305.6,658.7 307.9,659.1 310.2,662.7 312.5,669.4 314.8,671.6 317.1,672.0 319.4,677.4 321.7,679.8 324.0,675.0 326.3,673.9 328.6,674.4 331.0,680.4 333.3,684.7 335.6,680.3 337.9,688.6 340.2,688.6 342.5,688.6 344.8,692.9 347.1,690.4 349.4,694.6 351.7,695.5 354.0,700.2 356.3,701.6 358.6,705.6 360.9,703.8 363.2,707.6 365.5,705.9 367.8,697.9 370.1,697.6 372.4,701.5 374.7,695.9 377.0,702.0 379.3,701.3 381.6,695.5 383.9,693.6 386.2,695.2 388.5,702.3 390.8,703.3 393.1,702.6 395.4,710.7 397.7,711.0 400.0,706.4 402.3,704.9 404.6,706.8 406.9,706.1 409.2,708.1 411.5,713.3 413.8,708.4 416.1,712.1 418.4,710.9 420.7,707.0 423.0,702.7 425.3,704.3 427.6,706.9 429.9,707.1 432.2,708.3 434.5,704.2 436.8,710.1 439.1,707.7 441.4,707.7 443.7,711.0 446.0,712.0 448.3,716.8 450.6,717.5 452.9,712.9 455.2,714.4 457.5,712.4 459.8,714.8 462.1,711.4 464.4,714.4 466.7,711.1 469.0,708.6 471.3,710.1 473.6,711.7 475.9,713.8 478.2,711.1 480.5,711.5 482.8,711.4 485.1,709.5 487.4,706.6 489.7,705.8 492.0,707.4 494.3,707.4 496.6,705.3 498.9,701.0 501.2,703.0 503.5,700.3 505.8,702.0 508.2,701.4 510.5,702.7 512.8,703.9 515.1,700.5 517.4,704.2 519.7,705.1 522.0,703.4 524.3,701.3 526.6,699.9 528.9,700.3 531.2,701.5 533.5,701.5 535.8,704.4 538.1,703.7 540.4,706.4 542.7,705.7 545.0,708.5 547.3,711.6 549.6,711.5 551.9,710.4 554.2,710.0 556.5,709.3 558.8,700.9 561.1,699.4 563.4,699.4 565.7,699.9 568.0,701.2 570.3,695.1 572.6,695.8 574.9,697.9 577.2,700.5 579.5,704.0 581.8,704.0 584.1,698.7 586.4,700.7 588.7,702.3 591.0,699.2 593.3,699.6 595.6,699.6 597.9,699.6 600.2,691.6 602.5,694.7 604.8,690.0 607.1,689.5 609.4,690.7 611.7,692.3 614.0,693.2 616.3,692.8 618.6,693.2 620.9,693.4 623.2,695.6 625.5,697.7 627.8,696.7 630.1,701.6 632.4,698.7 634.7,694.5 637.0,697.4 639.3,695.4 641.6,697.6 643.9,700.0 646.2,703.4 648.5,705.0 650.8,707.6 653.1,702.4 655.4,702.6 657.7,701.9 660.0,699.7 662.3,691.7 664.6,693.2 666.9,692.4 669.2,683.3 671.5,679.7 673.8,684.2 676.1,684.0 678.4,685.6 680.7,687.0 683.0,685.5 685.4,683.4 687.7,689.1 690.0,686.6 692.3,688.2 694.6,688.0 696.9,686.9 699.2,683.6 701.5,687.0 703.8,691.3 706.1,693.4 708.4,692.4 710.7,692.1 713.0,690.8 715.3,691.9 717.6,691.1 719.9,689.9 722.2,684.5 724.5,683.1 726.8,682.5 729.1,682.7 731.4,681.5 733.7,681.5 736.0,684.7 738.3,684.7 740.6,684.7 742.9,684.7 745.2,684.7 747.5,691.1 749.8,689.0 752.1,690.1 754.4,688.5 756.7,685.7 759.0,681.7 761.3,680.8 763.6,681.3 765.9,681.5 768.2,681.5 770.5,681.6 772.8,683.3 775.1,687.0 777.4,685.3 779.7,683.8 782.0,689.8 784.3,688.1 786.6,686.1 788.9,687.3 791.2,692.2 793.5,690.0 795.8,689.2 798.1,683.8 800.4,684.9 802.7,688.9 805.0,683.9 807.3,684.4 809.6,684.6 811.9,682.7 814.2,687.0 816.5,686.6 818.8,684.9 821.1,685.4 823.4,684.6 825.7,680.6 828.0,681.2 830.3,681.2 832.6,683.2 834.9,687.7 837.2,686.1 839.5,688.5 841.8,687.2 844.1,690.8 846.4,686.4 848.7,688.7 851.0,689.2 853.3,690.6 855.6,688.1 857.9,682.8 860.2,682.8 862.6,681.8 864.9,686.1 867.2,684.5 869.5,685.3 871.8,688.2 874.1,684.1 876.4,684.4 878.7,686.5 881.0,686.6 883.3,685.2 885.6,687.5 887.9,691.4 890.2,685.7 892.5,682.9 894.8,681.1 897.1,677.4 899.4,677.1 901.7,681.3 904.0,676.0 906.3,674.2 908.6,671.9 910.9,671.2 913.2,671.3 915.5,673.1 917.8,673.4 920.1,679.1 922.4,681.8 924.7,685.2 927.0,684.5 929.3,684.6 931.6,680.1 933.9,682.4 936.2,683.3 938.5,681.9 940.8,679.8 943.1,677.7 945.4,679.3" fill="none" stroke="#8a8f98" stroke-width="1.1"/>
<text x="64" y="574" font-weight="bold" fill="#333">TR44(R3 트레일 4/4)</text>
<text x="960" y="600" font-size="14" font-weight="bold" fill="#1a7f37">+177.7만</text>
<text x="960" y="618" fill="#666">2거래 2승</text>
<line x1="100.8" y1="611.0" x2="211.3" y2="649.6" stroke="#1a7f37" stroke-width="1.6" opacity="0.75"/>
<text x="211.3" y="653.6" fill="#1a7f37" font-size="12" text-anchor="middle">×</text>
<line x1="100.8" y1="611.0" x2="450.6" y2="717.3" stroke="#1a7f37" stroke-width="1.6" opacity="0.75"/>
<text x="450.6" y="721.3" fill="#1a7f37" font-size="12" text-anchor="middle">×</text>
<polygon points="100.8,618.0 95.8,609.0 105.8,609.0" fill="#cf222e"/>
<text x="100.8" y="628.0" font-size="10" fill="#333" text-anchor="middle">1</text>
<text x="960" y="636" fill="#1a7f37">1 R2▼ +133.9만</text>
<line x1="487.4" y1="706.6" x2="938.5" y2="681.9" stroke="#1a7f37" stroke-width="1.6" opacity="0.75"/>
<text x="938.5" y="685.9" fill="#1a7f37" font-size="12" text-anchor="middle">×</text>
<line x1="487.4" y1="706.6" x2="938.5" y2="681.9" stroke="#1a7f37" stroke-width="1.6" opacity="0.75"/>
<text x="938.5" y="685.9" fill="#1a7f37" font-size="12" text-anchor="middle">×</text>
<polygon points="487.4,699.6 482.4,708.6 492.4,708.6" fill="#1a7f37"/>
<text x="487.4" y="696.6" font-size="10" fill="#333" text-anchor="middle">2</text>
<text x="960" y="650" fill="#1a7f37">2 R3▲ +43.8만</text>
<text x="64" y="750" font-weight="bold" fill="#333">개인 위클리 콜−풋(백만원) — 양수 = 하방 방향</text>
<rect x="64" y="754" width="886" height="110" fill="#fafafa" stroke="#e3e3e3"/>
<line x1="64" y1="864.0" x2="950" y2="864.0" stroke="#bbb"/>
<polyline points="66.3,862.8 68.6,862.3 70.9,862.0 73.2,862.2 75.5,861.7 77.8,862.2 80.1,863.0 82.4,862.0 84.7,862.3 87.0,862.3 89.3,861.2 91.6,861.2 93.9,861.1 96.2,861.8 98.5,860.2 100.8,854.1 103.1,853.5 105.4,853.4 107.7,852.9 110.0,851.8 112.3,850.0 114.6,847.8 116.9,843.9 119.2,844.0 121.5,843.6 123.8,841.3 126.1,843.4 128.4,844.3 130.7,840.6 133.0,841.1 135.3,839.2 137.6,839.7 139.9,839.7 142.2,839.3 144.5,838.7 146.8,837.8 149.1,836.1 151.4,836.9 153.8,835.9 156.1,836.2 158.4,835.2 160.7,835.3 163.0,837.6 165.3,836.5 167.6,835.7 169.9,835.9 172.2,836.1 174.5,835.6 176.8,832.3 179.1,831.9 181.4,832.5 183.7,829.6 186.0,830.7 188.3,833.8 190.6,833.4 192.9,835.2 195.2,835.1 197.5,833.5 199.8,831.5 202.1,831.2 204.4,830.9 206.7,830.3 209.0,828.6 211.3,827.0 213.6,825.0 215.9,824.6 218.2,824.5 220.5,822.9 222.8,822.5 225.1,819.6 227.4,818.9 229.7,817.1 232.0,816.2 234.3,814.8 236.6,815.5 238.9,813.6 241.2,812.7 243.5,811.7 245.8,811.8 248.1,813.5 250.4,814.2 252.7,814.8 255.0,814.5 257.3,815.1 259.6,815.9 261.9,815.0 264.2,815.7 266.5,817.1 268.8,817.5 271.1,817.0 273.4,819.2 275.7,819.5 278.0,819.7 280.3,819.2 282.6,818.9 284.9,819.3 287.2,819.1 289.5,818.4 291.8,818.1 294.1,817.9 296.4,817.2 298.7,817.6 301.0,815.7 303.3,815.8 305.6,814.2 307.9,813.7 310.2,811.6 312.5,808.7 314.8,807.9 317.1,806.2 319.4,805.2 321.7,803.5 324.0,800.9 326.3,802.2 328.6,801.3 331.0,800.4 333.3,797.5 335.6,797.4 337.9,794.3 340.2,795.7 342.5,795.9 344.8,792.4 347.1,791.2 349.4,791.2 351.7,789.5 354.0,787.8 356.3,780.5 358.6,778.8 360.9,777.6 363.2,775.6 365.5,774.4 367.8,774.1 370.1,772.9 372.4,773.1 374.7,772.1 377.0,771.1 379.3,768.5 381.6,768.6 383.9,771.4 386.2,772.0 388.5,770.2 390.8,768.2 393.1,768.9 395.4,767.2 397.7,767.5 400.0,767.2 402.3,766.0 404.6,765.3 406.9,764.3 409.2,764.6 411.5,762.6 413.8,762.4 416.1,763.8 418.4,762.8 420.7,761.4 423.0,762.9 425.3,764.0 427.6,763.5 429.9,762.4 432.2,761.5 434.5,761.7 436.8,762.0 439.1,760.3 441.4,761.4 443.7,761.3 446.0,760.7 448.3,757.5 450.6,755.4 452.9,756.6 455.2,756.3 457.5,757.1 459.8,757.1 462.1,756.5 464.4,756.8 466.7,756.3 469.0,756.5 471.3,756.6 473.6,755.7 475.9,754.2 478.2,754.0 480.5,754.4 482.8,754.0 485.1,754.4 487.4,756.7 489.7,756.0 492.0,756.2 494.3,755.8 496.6,756.0 498.9,756.7 501.2,759.1 503.5,758.1 505.8,758.9 508.2,758.9 510.5,758.5 512.8,758.2 515.1,758.3 517.4,760.6 519.7,760.3 522.0,760.2 524.3,761.7 526.6,763.4 528.9,763.0 531.2,763.3 533.5,763.2 535.8,762.3 538.1,762.3 540.4,762.6 542.7,763.0 545.0,763.8 547.3,762.4 549.6,762.0 551.9,761.4 554.2,761.4 556.5,761.7 558.8,761.2 561.1,766.6 563.4,766.4 565.7,765.1 568.0,766.0 570.3,766.9 572.6,768.9 574.9,767.1 577.2,767.8 579.5,765.8 581.8,764.5 584.1,764.9 586.4,767.0 588.7,767.0 591.0,766.8 593.3,768.0 595.6,767.3 597.9,767.7 600.2,768.3 602.5,768.4 604.8,766.5 607.1,768.8 609.4,769.3 611.7,768.5 614.0,767.5 616.3,767.7 618.6,767.7 620.9,768.0 623.2,765.8 625.5,766.6 627.8,766.0 630.1,766.1 632.4,764.6 634.7,766.2 637.0,767.1 639.3,767.2 641.6,767.5 643.9,766.9 646.2,766.4 648.5,765.2 650.8,764.8 653.1,764.4 655.4,764.3 657.7,764.4 660.0,765.5 662.3,766.4 664.6,769.1 666.9,770.7 669.2,772.7 671.5,773.4 673.8,774.9 676.1,775.2 678.4,774.6 680.7,774.3 683.0,774.1 685.4,774.5 687.7,774.3 690.0,774.1 692.3,774.1 694.6,773.7 696.9,773.7 699.2,774.2 701.5,776.0 703.8,773.5 706.1,773.3 708.4,771.5 710.7,771.7 713.0,772.3 715.3,772.5 717.6,772.8 719.9,773.0 722.2,775.1 724.5,776.2 726.8,776.1 729.1,776.3 731.4,776.4 733.7,777.2 736.0,775.3 738.3,774.6 740.6,773.7 742.9,773.6 745.2,772.5 747.5,771.7 749.8,771.8 752.1,771.2 754.4,771.0 756.7,771.4 759.0,774.5 761.3,775.0 763.6,777.1 765.9,777.6 768.2,778.1 770.5,780.0 772.8,779.3 775.1,778.9 777.4,778.6 779.7,779.1 782.0,778.5 784.3,776.7 786.6,776.3 788.9,778.1 791.2,777.8 793.5,776.9 795.8,777.4 798.1,778.3 800.4,778.6 802.7,777.9 805.0,778.2 807.3,778.6 809.6,778.6 811.9,779.0 814.2,780.3 816.5,779.2 818.8,779.7 821.1,780.0 823.4,780.0 825.7,779.7 828.0,780.2 830.3,780.5 832.6,780.1 834.9,780.4 837.2,778.9 839.5,778.3 841.8,778.3 844.1,777.2 846.4,778.2 848.7,780.1 851.0,779.7 853.3,780.0 855.6,780.1 857.9,780.3 860.2,783.2 862.6,784.0 864.9,784.6 867.2,783.0 869.5,782.2 871.8,782.0 874.1,781.9 876.4,782.4 878.7,782.4 881.0,781.8 883.3,781.9 885.6,781.2 887.9,779.8 890.2,779.6 892.5,782.4 894.8,785.3 897.1,785.6 899.4,788.3 901.7,788.9 904.0,788.5 906.3,791.1 908.6,794.7 910.9,794.5 913.2,796.2 915.5,797.2 917.8,798.3 920.1,796.3 922.4,794.2 924.7,792.4 927.0,789.2 929.3,789.5 931.6,789.5 933.9,790.3 936.2,790.1 938.5,790.8 940.8,791.0 943.1,791.5 945.4,792.3" fill="none" stroke="#6f42c1" stroke-width="1.2"/>
<text x="956" y="795.3" fill="#6f42c1" font-size="10">+3765</text>
<text x="98.5" y="878" fill="#777" text-anchor="middle">09:00</text>
<text x="236.6" y="878" fill="#777" text-anchor="middle">10:00</text>
<text x="374.7" y="878" fill="#777" text-anchor="middle">11:00</text>
<text x="512.8" y="878" fill="#777" text-anchor="middle">12:00</text>
<text x="650.8" y="878" fill="#777" text-anchor="middle">13:00</text>
<text x="788.9" y="878" fill="#777" text-anchor="middle">14:00</text>
<text x="927.0" y="878" fill="#777" text-anchor="middle">15:00</text>
<text x="64" y="900" fill="#999" font-size="10">▲매수 ▼매도 진입 · × 청산(다리별) · 금색 점선 = 08:50 구조맥점 · 선 색 = 거래 손익</text>
</svg>